<svg width="152" height="61" viewBox="0 0 152 61" fill="none" xmlns="http://www.w3.org/2000/svg">
<path d="M14.9195 34.5784C11.9755 34.5784 9.4795 34.0877 7.4315 33.1064V35.2824C7.4315 36.6051 8.09283 37.3944 9.4155 37.6504L21.4475 39.8904C23.4528 40.2744 25.2662 40.7864 26.8875 41.4264C28.5088 42.0237 29.8102 42.8984 30.7915 44.0504C31.7728 45.1597 32.2635 46.6957 32.2635 48.6584C32.2635 50.7491 31.5808 52.6691 30.2155 54.4184C28.8502 56.2104 26.8235 57.6397 24.1355 58.7064C21.4902 59.8157 18.1835 60.3704 14.2155 60.3704C10.8022 60.3704 8.09283 60.0077 6.0875 59.2824C4.08217 58.5997 2.65283 57.7037 1.7995 56.5944C0.988833 55.4851 0.5835 54.3117 0.5835 53.0744C0.5835 51.5384 1.0955 49.9811 2.1195 48.4024C3.18617 46.8664 4.4875 45.6291 6.0235 44.6904C4.70083 44.1784 3.74083 43.5171 3.1435 42.7064C2.54617 41.8957 2.2475 41.0211 2.2475 40.0824C2.2475 39.2291 2.46083 38.4397 2.8875 37.7144C3.35683 36.9464 3.9115 36.1784 4.5515 35.4104L6.6635 32.7224C3.54883 30.9304 1.9915 28.1144 1.9915 24.2744C1.9915 21.2024 3.0795 18.7064 5.2555 16.7864C7.47417 14.8664 10.7168 13.9064 14.9835 13.9064C17.1595 13.9064 19.0582 14.1624 20.6795 14.6744C22.3435 15.1864 23.7088 15.9117 24.7755 16.8504C26.1408 16.6371 27.4208 16.2957 28.6155 15.8264C29.8528 15.3144 30.9622 14.6317 31.9435 13.7784L32.8395 14.4184V17.6824H25.6075C27.1435 19.3891 27.9115 21.5864 27.9115 24.2744C27.9115 27.2611 26.8022 29.7357 24.5835 31.6984C22.4075 33.6184 19.1862 34.5784 14.9195 34.5784ZM14.8555 33.2984C16.5622 33.2984 17.7995 32.5944 18.5675 31.1864C19.3782 29.7784 19.7835 27.4317 19.7835 24.1464C19.7835 20.8611 19.3782 18.5571 18.5675 17.2344C17.7995 15.8691 16.6048 15.1864 14.9835 15.1864C13.4048 15.1864 12.2102 15.8904 11.3995 17.2984C10.5888 18.6637 10.1835 20.9891 10.1835 24.2744C10.1835 27.5597 10.5462 29.8851 11.2715 31.2504C12.0395 32.6157 13.2342 33.2984 14.8555 33.2984ZM5.3195 51.0264C5.3195 53.5437 6.0875 55.4424 7.6235 56.7224C9.20217 58.0024 11.6768 58.6424 15.0475 58.6424C18.5888 58.6424 21.2555 58.0664 23.0475 56.9144C24.8395 55.7624 25.7355 54.1411 25.7355 52.0504C25.7355 50.8557 25.2875 49.8957 24.3915 49.1704C23.5382 48.4451 22.0662 47.8904 19.9755 47.5064L8.3915 45.3304C8.05017 45.2451 7.70883 45.1597 7.3675 45.0744C6.77017 45.9277 6.2795 46.8877 5.8955 47.9544C5.5115 49.0637 5.3195 50.0877 5.3195 51.0264ZM34.9095 45.6504V45.0104L35.6775 44.7544C37.2135 44.2424 37.9815 43.1757 37.9815 41.5544V7.31439C37.9815 6.46106 37.8108 5.82106 37.4695 5.39439C37.1282 4.92506 36.5308 4.58372 35.6775 4.37039L34.8455 4.17839V3.53839L46.5575 0.786388L47.3255 1.36239L47.0695 10.3224V32.2104C47.0695 33.7891 47.0695 35.3677 47.0695 36.9464C47.1122 38.4824 47.1335 40.0184 47.1335 41.5544C47.1335 42.4077 47.3042 43.1117 47.6455 43.6664C47.9868 44.1784 48.5628 44.5624 49.3735 44.8184L50.2055 45.0104V45.6504H34.9095ZM60.71 10.5784C59.2593 10.5784 58.022 10.1304 56.998 9.23439C56.0167 8.29572 55.526 7.12239 55.526 5.71439C55.526 4.26372 56.0167 3.09039 56.998 2.19439C58.022 1.29839 59.2593 0.850388 60.71 0.850388C62.1607 0.850388 63.3767 1.29839 64.358 2.19439C65.3393 3.09039 65.83 4.26372 65.83 5.71439C65.83 7.12239 65.3393 8.29572 64.358 9.23439C63.3767 10.1304 62.1607 10.5784 60.71 10.5784ZM53.158 45.6504V45.0104L54.054 44.7544C54.9073 44.4984 55.4833 44.1144 55.782 43.6024C56.1233 43.0904 56.294 42.4077 56.294 41.5544V21.5224C56.294 20.6264 56.1233 19.9651 55.782 19.5384C55.4833 19.0691 54.9073 18.7491 54.054 18.5784L53.158 18.3864V17.7464L64.87 13.9704L65.51 14.6104L65.318 23.6984V41.6184C65.318 42.4717 65.4673 43.1544 65.766 43.6664C66.1073 44.1784 66.6833 44.5624 67.494 44.8184L68.134 45.0104V45.6504H53.158ZM70.9675 45.6504V45.0104L71.8635 44.7544C72.6742 44.5411 73.2288 44.1784 73.5275 43.6664C73.8688 43.1544 74.0608 42.4717 74.1035 41.6184V21.5864C74.1035 20.6477 73.9542 19.9651 73.6555 19.5384C73.3568 19.0691 72.7808 18.7491 71.9275 18.5784L70.9675 18.3224V17.6824L81.9115 13.9704L82.5515 14.6104L83.0635 18.9624C84.4715 17.5544 86.0715 16.3597 87.8635 15.3784C89.6982 14.3971 91.5968 13.9064 93.5595 13.9064C95.6075 13.9064 97.2502 14.3331 98.4875 15.1864C99.7248 15.9971 100.664 17.2771 101.304 19.0264C102.968 17.4477 104.76 16.2104 106.68 15.3144C108.642 14.3757 110.541 13.9064 112.376 13.9064C115.405 13.9064 117.624 14.6317 119.032 16.0824C120.482 17.5331 121.208 19.8157 121.208 22.9304V41.6824C121.208 43.3464 121.976 44.3917 123.512 44.8184L124.216 45.0104V45.6504H109.432V45.0104L110.072 44.8184C110.882 44.5624 111.437 44.1784 111.736 43.6664C112.077 43.1544 112.248 42.4717 112.248 41.6184V22.0344C112.248 20.2424 111.928 19.0264 111.288 18.3864C110.648 17.7037 109.624 17.3624 108.216 17.3624C107.106 17.3624 106.018 17.6184 104.951 18.1304C103.928 18.5997 102.84 19.3251 101.688 20.3064C101.901 20.9891 102.029 21.7357 102.072 22.5464C102.157 23.3571 102.2 24.2104 102.2 25.1064V41.6824C102.242 43.3464 103.01 44.3917 104.504 44.8184L105.08 45.0104V45.6504H90.2315V45.0104L91.1275 44.7544C91.9382 44.4984 92.4928 44.1357 92.7915 43.6664C93.1328 43.1544 93.3035 42.4717 93.3035 41.6184V22.0984C93.3035 20.3917 92.9835 19.1757 92.3435 18.4504C91.7462 17.7251 90.7008 17.3624 89.2075 17.3624C88.2262 17.3624 87.2448 17.6184 86.2635 18.1304C85.2822 18.5997 84.2582 19.3037 83.1915 20.2424V41.6824C83.1915 43.3464 83.9382 44.3917 85.4315 44.8184L86.0075 45.0104V45.6504H70.9675ZM137.79 46.6104C135.699 46.6104 133.822 46.3544 132.158 45.8424C130.494 45.3731 128.957 44.7757 127.549 44.0504L127.614 36.4344H128.254L130.43 40.2744C131.368 41.9811 132.392 43.2611 133.502 44.1144C134.654 44.9251 136.104 45.3304 137.854 45.3304C139.902 45.3304 141.544 44.8824 142.782 43.9864C144.062 43.0477 144.702 41.8104 144.702 40.2744C144.702 38.8664 144.254 37.7144 143.358 36.8184C142.462 35.9224 140.798 35.1117 138.366 34.3864L135.678 33.5544C133.075 32.7864 131.027 31.5917 129.534 29.9704C128.04 28.3491 127.294 26.3651 127.294 24.0184C127.294 21.2024 128.403 18.8131 130.622 16.8504C132.84 14.8877 136.019 13.9064 140.158 13.9064C141.822 13.9064 143.379 14.0984 144.83 14.4824C146.323 14.8237 147.752 15.3571 149.118 16.0824L148.734 22.9944H148.094L145.854 19.0264C145.043 17.6184 144.232 16.6371 143.422 16.0824C142.654 15.4851 141.48 15.1864 139.902 15.1864C138.451 15.1864 137.086 15.5917 135.806 16.4024C134.525 17.2131 133.885 18.3651 133.885 19.8584C133.885 21.3091 134.419 22.4611 135.486 23.3144C136.595 24.1677 138.216 24.9571 140.35 25.6824L143.23 26.5144C146.302 27.4531 148.499 28.7544 149.822 30.4184C151.144 32.0397 151.806 34.0024 151.806 36.3064C151.806 39.4211 150.568 41.9171 148.094 43.7944C145.662 45.6717 142.227 46.6104 137.79 46.6104Z" fill="black"/>
</svg>
