<?xml version="1.0" encoding="UTF-8"?>
<svg xmlns="http://www.w3.org/2000/svg" xmlns:xlink="http://www.w3.org/1999/xlink" width="20px" height="19px" viewBox="0 0 20 19" version="1.1">
<g id="surface1">
<path style=" stroke:none;fill-rule:nonzero;fill:rgb(0%,0%,0%);fill-opacity:0.901961;" d="M 9.980469 0.769531 C 11.691406 0.769531 13.277344 1.105469 14.734375 1.773438 C 16.1875 2.445312 17.339844 3.355469 18.183594 4.511719 C 19.03125 5.664062 19.453125 6.921875 19.453125 8.28125 C 19.453125 9.644531 19.03125 10.90625 18.183594 12.0625 C 17.339844 13.21875 16.191406 14.132812 14.738281 14.800781 C 13.285156 15.472656 11.699219 15.808594 9.980469 15.808594 C 9.4375 15.808594 8.878906 15.769531 8.300781 15.691406 C 5.789062 17.445312 4.453125 18.332031 4.292969 18.351562 C 4.214844 18.378906 4.140625 18.378906 4.070312 18.34375 C 4.042969 18.320312 4.019531 18.292969 4.007812 18.257812 C 3.992188 18.222656 3.984375 18.1875 3.984375 18.160156 L 3.984375 18.117188 C 4.027344 17.839844 4.347656 16.6875 4.949219 14.660156 C 3.585938 13.976562 2.507812 13.074219 1.707031 11.949219 C 0.90625 10.824219 0.507812 9.601562 0.507812 8.28125 C 0.507812 6.921875 0.929688 5.664062 1.777344 4.511719 C 2.621094 3.355469 3.773438 2.445312 5.226562 1.773438 C 6.683594 1.105469 8.269531 0.769531 9.980469 0.769531 Z M 9.980469 0.769531 "/>
</g>
</svg>
