<svg viewBox="0 0 24 24" fill="none" xmlns="http://www.w3.org/2000/svg">
<path d="M6 8.5L6.58875 8H17.763L18 8.5V21.372L17.5 22H6.58875L6 21.372V8.5Z" fill="#DAB6FF"/>
<path fill-rule="evenodd" clip-rule="evenodd" d="M9.12279 1.75H15.1153L15.8521 2.55194V4.04546L15.1153 4.8474H14.1757V6.46265L14.6589 7.112V7.59416H17.789L18.25 8.42907V21.4151L17.789 22.25H6.48681L5.75 21.4481V8.3961L6.4868 7.59416H9.5792V7.09739L10.1758 6.44804V4.8474H9.12279L8.38598 4.04546V2.55194L9.12279 1.75ZM14.8957 4.3474L15.3521 3.85064V2.74676L14.8957 2.25H9.3424L8.88598 2.74676V3.85064L9.3424 4.3474H14.8957ZM10.6758 4.8474V6.29545H13.6757V4.8474H10.6758ZM13.8001 6.79545H10.5356L10.0792 7.29222V7.59416H14.1589V7.27761L13.8001 6.79545ZM6.70641 8.09416L6.25 8.59092V21.2532L6.70641 21.75H17.4939L17.75 21.2862V8.55794L17.4939 8.09416H6.70641ZM7.24152 9.21753H16.9965V20.6266H7.24152V9.21753ZM7.74152 9.71753V20.1266H16.4965V9.71753H7.74152Z" fill="black"/>
</svg>
