<svg width="375" height="400" viewBox="0 0 375 400" fill="none" xmlns="http://www.w3.org/2000/svg">
<rect width="375" height="400" fill="url(#paint0_linear_767_1671)"/>
<path d="M144.898 214.34C142.861 214.34 141.135 214.001 139.718 213.322V214.827C139.718 215.742 140.175 216.288 141.09 216.466L149.414 218.015C150.801 218.281 152.056 218.635 153.178 219.078C154.299 219.491 155.199 220.096 155.878 220.893C156.557 221.661 156.897 222.723 156.897 224.081C156.897 225.527 156.424 226.856 155.48 228.066C154.535 229.306 153.133 230.294 151.274 231.032C149.444 231.8 147.156 232.183 144.411 232.183C142.05 232.183 140.175 231.933 138.788 231.431C137.401 230.958 136.412 230.339 135.821 229.571C135.261 228.804 134.98 227.992 134.98 227.136C134.98 226.073 135.334 224.996 136.043 223.904C136.781 222.841 137.681 221.985 138.744 221.336C137.829 220.982 137.164 220.524 136.751 219.963C136.338 219.402 136.131 218.797 136.131 218.148C136.131 217.558 136.279 217.012 136.574 216.51C136.899 215.978 137.283 215.447 137.725 214.916L139.186 213.056C137.032 211.817 135.954 209.868 135.954 207.212C135.954 205.087 136.707 203.36 138.212 202.032C139.747 200.703 141.991 200.039 144.942 200.039C146.448 200.039 147.761 200.216 148.883 200.57C150.034 200.925 150.979 201.426 151.716 202.076C152.661 201.928 153.547 201.692 154.373 201.367C155.229 201.013 155.996 200.541 156.675 199.951L157.295 200.393V202.651H152.292C153.355 203.832 153.886 205.352 153.886 207.212C153.886 209.278 153.119 210.99 151.584 212.348C150.078 213.676 147.85 214.34 144.898 214.34ZM144.854 213.455C146.034 213.455 146.89 212.968 147.422 211.994C147.983 211.02 148.263 209.396 148.263 207.123C148.263 204.85 147.983 203.257 147.422 202.342C146.89 201.397 146.064 200.925 144.942 200.925C143.85 200.925 143.024 201.412 142.463 202.386C141.902 203.33 141.622 204.939 141.622 207.212C141.622 209.485 141.872 211.093 142.374 212.038C142.906 212.982 143.732 213.455 144.854 213.455ZM138.257 225.719C138.257 227.461 138.788 228.774 139.851 229.66C140.943 230.545 142.655 230.988 144.987 230.988C147.436 230.988 149.281 230.59 150.521 229.793C151.761 228.996 152.381 227.874 152.381 226.428C152.381 225.601 152.071 224.937 151.451 224.435C150.86 223.933 149.842 223.55 148.396 223.284L140.382 221.779C140.146 221.72 139.91 221.661 139.673 221.602C139.26 222.192 138.921 222.856 138.655 223.594C138.389 224.361 138.257 225.07 138.257 225.719ZM158.727 222V221.557L159.259 221.38C160.321 221.026 160.853 220.288 160.853 219.166V195.479C160.853 194.888 160.734 194.446 160.498 194.15C160.262 193.826 159.849 193.59 159.259 193.442L158.683 193.309V192.866L166.785 190.963L167.317 191.361L167.14 197.56V212.702C167.14 213.794 167.14 214.886 167.14 215.978C167.169 217.041 167.184 218.104 167.184 219.166C167.184 219.757 167.302 220.244 167.538 220.627C167.774 220.982 168.173 221.247 168.734 221.424L169.309 221.557V222H158.727ZM176.576 197.737C175.573 197.737 174.717 197.427 174.008 196.807C173.329 196.158 172.99 195.346 172.99 194.372C172.99 193.368 173.329 192.557 174.008 191.937C174.717 191.317 175.573 191.007 176.576 191.007C177.58 191.007 178.421 191.317 179.1 191.937C179.779 192.557 180.118 193.368 180.118 194.372C180.118 195.346 179.779 196.158 179.1 196.807C178.421 197.427 177.58 197.737 176.576 197.737ZM171.352 222V221.557L171.972 221.38C172.562 221.203 172.96 220.937 173.167 220.583C173.403 220.229 173.521 219.757 173.521 219.166V205.308C173.521 204.688 173.403 204.231 173.167 203.935C172.96 203.611 172.562 203.389 171.972 203.271L171.352 203.138V202.696L179.454 200.083L179.897 200.526L179.764 206.813V219.211C179.764 219.801 179.867 220.273 180.074 220.627C180.31 220.982 180.709 221.247 181.27 221.424L181.712 221.557V222H171.352ZM183.673 222V221.557L184.292 221.38C184.853 221.233 185.237 220.982 185.444 220.627C185.68 220.273 185.813 219.801 185.842 219.211V205.352C185.842 204.703 185.739 204.231 185.532 203.935C185.326 203.611 184.927 203.389 184.337 203.271L183.673 203.094V202.651L191.244 200.083L191.686 200.526L192.041 203.537C193.015 202.563 194.122 201.736 195.361 201.058C196.631 200.379 197.944 200.039 199.302 200.039C200.719 200.039 201.855 200.334 202.711 200.925C203.567 201.486 204.217 202.371 204.659 203.581C205.81 202.489 207.05 201.633 208.378 201.013C209.736 200.364 211.05 200.039 212.319 200.039C214.415 200.039 215.95 200.541 216.924 201.545C217.927 202.548 218.429 204.127 218.429 206.282V219.255C218.429 220.406 218.96 221.129 220.023 221.424L220.51 221.557V222H210.282V221.557L210.725 221.424C211.286 221.247 211.67 220.982 211.876 220.627C212.112 220.273 212.23 219.801 212.23 219.211V205.662C212.23 204.422 212.009 203.581 211.566 203.138C211.124 202.666 210.415 202.43 209.441 202.43C208.674 202.43 207.921 202.607 207.183 202.961C206.475 203.286 205.722 203.788 204.925 204.467C205.073 204.939 205.161 205.456 205.191 206.016C205.25 206.577 205.279 207.168 205.279 207.787V219.255C205.309 220.406 205.84 221.129 206.873 221.424L207.272 221.557V222H197V221.557L197.619 221.38C198.18 221.203 198.564 220.952 198.771 220.627C199.007 220.273 199.125 219.801 199.125 219.211V205.706C199.125 204.526 198.903 203.685 198.461 203.183C198.047 202.681 197.324 202.43 196.291 202.43C195.612 202.43 194.933 202.607 194.254 202.961C193.576 203.286 192.867 203.773 192.129 204.422V219.255C192.129 220.406 192.646 221.129 193.679 221.424L194.077 221.557V222H183.673ZM229.901 222.664C228.454 222.664 227.156 222.487 226.004 222.133C224.853 221.808 223.791 221.395 222.817 220.893L222.861 215.624H223.304L224.809 218.281C225.458 219.462 226.167 220.347 226.934 220.937C227.731 221.498 228.735 221.779 229.945 221.779C231.362 221.779 232.498 221.469 233.354 220.849C234.24 220.199 234.683 219.343 234.683 218.281C234.683 217.307 234.373 216.51 233.753 215.89C233.133 215.27 231.982 214.709 230.299 214.207L228.44 213.632C226.639 213.101 225.222 212.274 224.189 211.152C223.156 210.031 222.639 208.658 222.639 207.035C222.639 205.087 223.407 203.434 224.942 202.076C226.477 200.718 228.676 200.039 231.539 200.039C232.69 200.039 233.767 200.172 234.771 200.438C235.804 200.674 236.793 201.043 237.738 201.545L237.472 206.326H237.029L235.479 203.581C234.919 202.607 234.358 201.928 233.797 201.545C233.266 201.131 232.454 200.925 231.362 200.925C230.358 200.925 229.414 201.205 228.528 201.766C227.643 202.327 227.2 203.124 227.2 204.157C227.2 205.16 227.569 205.957 228.307 206.548C229.074 207.138 230.196 207.684 231.672 208.186L233.664 208.762C235.789 209.411 237.31 210.311 238.225 211.462C239.14 212.584 239.597 213.942 239.597 215.536C239.597 217.69 238.741 219.417 237.029 220.716C235.347 222.015 232.971 222.664 229.901 222.664Z" fill="#DAB6FF"/>
<path d="M144.898 206.34C142.861 206.34 141.135 206.001 139.718 205.322V206.827C139.718 207.742 140.175 208.288 141.09 208.466L149.414 210.015C150.801 210.281 152.056 210.635 153.178 211.078C154.299 211.491 155.199 212.096 155.878 212.893C156.557 213.661 156.897 214.723 156.897 216.081C156.897 217.527 156.424 218.856 155.48 220.066C154.535 221.306 153.133 222.294 151.274 223.032C149.444 223.8 147.156 224.183 144.411 224.183C142.05 224.183 140.175 223.933 138.788 223.431C137.401 222.958 136.412 222.339 135.821 221.571C135.261 220.804 134.98 219.992 134.98 219.136C134.98 218.073 135.334 216.996 136.043 215.904C136.781 214.841 137.681 213.985 138.744 213.336C137.829 212.982 137.164 212.524 136.751 211.963C136.338 211.402 136.131 210.797 136.131 210.148C136.131 209.558 136.279 209.012 136.574 208.51C136.899 207.978 137.283 207.447 137.725 206.916L139.186 205.056C137.032 203.817 135.954 201.868 135.954 199.212C135.954 197.087 136.707 195.36 138.212 194.032C139.747 192.703 141.991 192.039 144.942 192.039C146.448 192.039 147.761 192.216 148.883 192.57C150.034 192.925 150.979 193.426 151.716 194.076C152.661 193.928 153.547 193.692 154.373 193.367C155.229 193.013 155.996 192.541 156.675 191.951L157.295 192.393V194.651H152.292C153.355 195.832 153.886 197.352 153.886 199.212C153.886 201.278 153.119 202.99 151.584 204.348C150.078 205.676 147.85 206.34 144.898 206.34ZM144.854 205.455C146.034 205.455 146.89 204.968 147.422 203.994C147.983 203.02 148.263 201.396 148.263 199.123C148.263 196.85 147.983 195.257 147.422 194.342C146.89 193.397 146.064 192.925 144.942 192.925C143.85 192.925 143.024 193.412 142.463 194.386C141.902 195.33 141.622 196.939 141.622 199.212C141.622 201.485 141.872 203.093 142.374 204.038C142.906 204.982 143.732 205.455 144.854 205.455ZM138.257 217.719C138.257 219.461 138.788 220.774 139.851 221.66C140.943 222.545 142.655 222.988 144.987 222.988C147.436 222.988 149.281 222.59 150.521 221.793C151.761 220.996 152.381 219.874 152.381 218.428C152.381 217.601 152.071 216.937 151.451 216.435C150.86 215.933 149.842 215.55 148.396 215.284L140.382 213.779C140.146 213.72 139.91 213.661 139.673 213.602C139.26 214.192 138.921 214.856 138.655 215.594C138.389 216.361 138.257 217.07 138.257 217.719ZM158.727 214V213.557L159.259 213.38C160.321 213.026 160.853 212.288 160.853 211.166V187.479C160.853 186.888 160.734 186.446 160.498 186.15C160.262 185.826 159.849 185.59 159.259 185.442L158.683 185.309V184.866L166.785 182.963L167.317 183.361L167.14 189.56V204.702C167.14 205.794 167.14 206.886 167.14 207.978C167.169 209.041 167.184 210.104 167.184 211.166C167.184 211.757 167.302 212.244 167.538 212.627C167.774 212.982 168.173 213.247 168.734 213.424L169.309 213.557V214H158.727ZM176.576 189.737C175.573 189.737 174.717 189.427 174.008 188.807C173.329 188.158 172.99 187.346 172.99 186.372C172.99 185.368 173.329 184.557 174.008 183.937C174.717 183.317 175.573 183.007 176.576 183.007C177.58 183.007 178.421 183.317 179.1 183.937C179.779 184.557 180.118 185.368 180.118 186.372C180.118 187.346 179.779 188.158 179.1 188.807C178.421 189.427 177.58 189.737 176.576 189.737ZM171.352 214V213.557L171.972 213.38C172.562 213.203 172.96 212.937 173.167 212.583C173.403 212.229 173.521 211.757 173.521 211.166V197.308C173.521 196.688 173.403 196.231 173.167 195.935C172.96 195.611 172.562 195.389 171.972 195.271L171.352 195.138V194.696L179.454 192.083L179.897 192.526L179.764 198.813V211.211C179.764 211.801 179.867 212.273 180.074 212.627C180.31 212.982 180.709 213.247 181.27 213.424L181.712 213.557V214H171.352ZM183.673 214V213.557L184.292 213.38C184.853 213.233 185.237 212.982 185.444 212.627C185.68 212.273 185.813 211.801 185.842 211.211V197.352C185.842 196.703 185.739 196.231 185.532 195.935C185.326 195.611 184.927 195.389 184.337 195.271L183.673 195.094V194.651L191.244 192.083L191.686 192.526L192.041 195.537C193.015 194.563 194.122 193.736 195.361 193.058C196.631 192.379 197.944 192.039 199.302 192.039C200.719 192.039 201.855 192.334 202.711 192.925C203.567 193.486 204.217 194.371 204.659 195.581C205.81 194.489 207.05 193.633 208.378 193.013C209.736 192.364 211.05 192.039 212.319 192.039C214.415 192.039 215.95 192.541 216.924 193.545C217.927 194.548 218.429 196.127 218.429 198.282V211.255C218.429 212.406 218.96 213.129 220.023 213.424L220.51 213.557V214H210.282V213.557L210.725 213.424C211.286 213.247 211.67 212.982 211.876 212.627C212.112 212.273 212.23 211.801 212.23 211.211V197.662C212.23 196.422 212.009 195.581 211.566 195.138C211.124 194.666 210.415 194.43 209.441 194.43C208.674 194.43 207.921 194.607 207.183 194.961C206.475 195.286 205.722 195.788 204.925 196.467C205.073 196.939 205.161 197.456 205.191 198.016C205.25 198.577 205.279 199.168 205.279 199.787V211.255C205.309 212.406 205.84 213.129 206.873 213.424L207.272 213.557V214H197V213.557L197.619 213.38C198.18 213.203 198.564 212.952 198.771 212.627C199.007 212.273 199.125 211.801 199.125 211.211V197.706C199.125 196.526 198.903 195.685 198.461 195.183C198.047 194.681 197.324 194.43 196.291 194.43C195.612 194.43 194.933 194.607 194.254 194.961C193.576 195.286 192.867 195.773 192.129 196.422V211.255C192.129 212.406 192.646 213.129 193.679 213.424L194.077 213.557V214H183.673ZM229.901 214.664C228.454 214.664 227.156 214.487 226.004 214.133C224.853 213.808 223.791 213.395 222.817 212.893L222.861 207.624H223.304L224.809 210.281C225.458 211.462 226.167 212.347 226.934 212.937C227.731 213.498 228.735 213.779 229.945 213.779C231.362 213.779 232.498 213.469 233.354 212.849C234.24 212.199 234.683 211.343 234.683 210.281C234.683 209.307 234.373 208.51 233.753 207.89C233.133 207.27 231.982 206.709 230.299 206.207L228.44 205.632C226.639 205.101 225.222 204.274 224.189 203.152C223.156 202.031 222.639 200.658 222.639 199.035C222.639 197.087 223.407 195.434 224.942 194.076C226.477 192.718 228.676 192.039 231.539 192.039C232.69 192.039 233.767 192.172 234.771 192.438C235.804 192.674 236.793 193.043 237.738 193.545L237.472 198.326H237.029L235.479 195.581C234.919 194.607 234.358 193.928 233.797 193.545C233.266 193.131 232.454 192.925 231.362 192.925C230.358 192.925 229.414 193.205 228.528 193.766C227.643 194.327 227.2 195.124 227.2 196.157C227.2 197.16 227.569 197.957 228.307 198.548C229.074 199.138 230.196 199.684 231.672 200.186L233.664 200.762C235.789 201.411 237.31 202.311 238.225 203.462C239.14 204.584 239.597 205.942 239.597 207.536C239.597 209.69 238.741 211.417 237.029 212.716C235.347 214.015 232.971 214.664 229.901 214.664Z" fill="black"/>
<defs>
<linearGradient id="paint0_linear_767_1671" x1="187.5" y1="0" x2="187.5" y2="400" gradientUnits="userSpaceOnUse">
<stop stop-color="#D9D9D9" stop-opacity="0"/>
<stop offset="1" stop-color="#DAB6FF"/>
</linearGradient>
</defs>
</svg>
