<svg width="40" height="38" viewBox="0 0 40 38" fill="none" xmlns="http://www.w3.org/2000/svg">
<path d="M39.6326 12.7062C39.6464 15.4443 39.1602 18.1619 38.198 20.7253C37.2581 23.2236 35.9786 25.5805 34.3956 27.7297C32.8601 29.8268 31.0417 31.7011 28.9922 33.2994C27.0395 34.8332 24.8809 36.0847 22.5796 37.0171L21.4016 34.3142C23.2008 33.5266 24.8549 32.4424 26.2949 31.1067C27.7112 29.8109 28.9859 28.3681 30.0973 26.8029C31.0939 25.4181 31.9157 23.9156 32.5443 22.3295C33.0725 21.0429 33.3583 19.6697 33.3871 18.2791H31.0281C27.9867 18.2791 25.6228 17.4627 23.9366 15.8297C23.0954 15.01 22.4353 14.0231 21.9987 12.9327C21.5621 11.8423 21.3587 10.6725 21.4016 9.49873C21.3502 8.35218 21.5332 7.20719 21.9394 6.13375C22.3455 5.06032 22.9664 4.081 23.7639 3.25565C25.3403 1.67659 27.5351 0.888386 30.3484 0.891026C33.7251 0.891026 36.1164 2.1012 37.5223 4.52154C38.9482 7.01066 39.6771 9.83796 39.6326 12.7062ZM19.0473 12.7062C19.0603 15.4444 18.5733 18.162 17.6103 20.7253C16.6733 23.2239 15.3956 25.5809 13.8134 27.7297C12.2773 29.8261 10.459 31.7004 8.41006 33.2994C6.4578 34.8338 4.29903 36.0853 1.99746 37.0171L0.81633 34.3142C2.61724 33.528 4.2726 32.4437 5.71273 31.1067C7.12655 29.81 8.39925 28.3673 9.50959 26.8029C10.5062 25.4181 11.3281 23.9156 11.9566 22.3295C12.4842 21.0426 12.7707 19.6696 12.8018 18.2791H10.4396C7.40084 18.2791 5.03701 17.4627 3.3481 15.8297C2.50804 15.0093 1.84884 14.0222 1.41283 12.9319C0.976822 11.8416 0.77364 10.6722 0.81633 9.49873C0.765396 8.35203 0.948814 7.20697 1.35538 6.13355C1.76195 5.06013 2.38313 4.08088 3.18095 3.25565C4.75737 1.67659 6.95115 0.888386 9.76229 0.891026C13.139 0.891026 15.5311 2.1012 16.9385 4.52154C18.3641 7.01102 19.0926 9.83783 19.0473 12.7062Z" fill="#9B9B9B"/>
</svg>
