<svg width="40" height="38" viewBox="0 0 40 38" fill="none" xmlns="http://www.w3.org/2000/svg">
<path d="M-2.66735e-05 25.201C-0.0137954 22.4629 0.472379 19.7453 1.43459 17.1819C2.37451 14.6836 3.654 12.3267 5.237 10.1775C6.77244 8.08046 8.59083 6.20609 10.6404 4.60778C12.593 3.07401 14.7517 1.82253 17.053 0.890137L18.2309 3.59302C16.4318 4.38061 14.7777 5.46486 13.3377 6.80051C11.9213 8.09636 10.6467 9.53908 9.53531 11.1044C8.5387 12.4891 7.71682 13.9916 7.0883 15.5777C6.56003 16.8643 6.27427 18.2376 6.24543 19.6281H8.60451C11.6459 19.6281 14.0097 20.4446 15.696 22.0775C16.5372 22.8973 17.1973 23.8842 17.6339 24.9746C18.0705 26.065 18.2739 27.2347 18.2309 28.4085C18.2823 29.555 18.0994 30.7 17.6932 31.7735C17.287 32.8469 16.6662 33.8262 15.8687 34.6516C14.2923 36.2306 12.0974 37.0188 9.28419 37.0162C5.90744 37.0162 3.51615 35.806 2.11031 33.3857C0.684409 30.8966 -0.0445804 28.0693 -2.66735e-05 25.201ZM20.5853 25.201C20.5723 22.4628 21.0592 19.7452 22.0223 17.1819C22.9592 14.6834 24.2369 12.3263 25.8191 10.1775C27.3553 8.0811 29.1736 6.20682 31.2225 4.60778C33.1748 3.07345 35.3335 1.82193 37.6351 0.890137L38.8162 3.59302C37.0153 4.37919 35.36 5.46357 33.9198 6.80051C32.506 8.09724 31.2333 9.53988 30.123 11.1044C29.1264 12.4891 28.3045 13.9916 27.676 15.5777C27.1483 16.8646 26.8618 18.2376 26.8307 19.6281H29.193C32.2317 19.6281 34.5956 20.4446 36.2845 22.0775C37.1245 22.8979 37.7837 23.885 38.2197 24.9753C38.6557 26.0656 38.8589 27.235 38.8162 28.4085C38.8672 29.5552 38.6838 30.7003 38.2772 31.7737C37.8706 32.8471 37.2494 33.8263 36.4516 34.6516C34.8752 36.2306 32.6814 37.0188 29.8703 37.0162C26.4935 37.0162 24.1014 35.806 22.694 33.3857C21.2685 30.8962 20.54 28.0694 20.5853 25.201Z" fill="#9B9B9B"/>
</svg>